<mxfile host="app.diagrams.net" modified="2022-03-28T05:46:38.855Z" agent="5.0 (Windows NT 10.0; Win64; x64) AppleWebKit/537.36 (KHTML, like Gecko) Chrome/99.0.4844.82 Safari/537.36" etag="zr7H6VT_mj-iCVmWjyX5" version="17.2.4" type="github">
  <diagram id="R2lEEEUBdFMjLlhIrx00" name="Page-1">
    <mxGraphModel dx="4030" dy="2307" grid="1" gridSize="10" guides="1" tooltips="1" connect="1" arrows="1" fold="1" page="1" pageScale="1" pageWidth="5000" pageHeight="2000" background="none" math="0" shadow="0" extFonts="Permanent Marker^https://fonts.googleapis.com/css?family=Permanent+Marker">
      <root>
        <mxCell id="0" />
        <mxCell id="1" parent="0" />
        <mxCell id="9POAu8U3y-N-81E7nK2J-9" value="회원" style="rounded=0;whiteSpace=wrap;html=1;fontSize=15;" vertex="1" parent="1">
          <mxGeometry x="490" y="710" width="120" height="60" as="geometry" />
        </mxCell>
        <mxCell id="9POAu8U3y-N-81E7nK2J-10" value="게시글" style="rounded=0;whiteSpace=wrap;html=1;fontSize=15;" vertex="1" parent="1">
          <mxGeometry x="940" y="710" width="120" height="60" as="geometry" />
        </mxCell>
        <mxCell id="9POAu8U3y-N-81E7nK2J-13" value="작성" style="rhombus;whiteSpace=wrap;html=1;fontSize=15;" vertex="1" parent="1">
          <mxGeometry x="710" y="690" width="110" height="80" as="geometry" />
        </mxCell>
        <mxCell id="9POAu8U3y-N-81E7nK2J-14" value="날씨" style="rounded=0;whiteSpace=wrap;html=1;fontSize=15;" vertex="1" parent="1">
          <mxGeometry x="1040" y="550" width="120" height="60" as="geometry" />
        </mxCell>
      </root>
    </mxGraphModel>
  </diagram>
</mxfile>
